<svg width="10" height="10" viewBox="0 0 10 10" fill="none" xmlns="http://www.w3.org/2000/svg">
<g clip-path="url(#clip0_939_971)">
<path d="M4.90621 4.52467L5.77871 4.26217C5.80996 4.25334 5.83913 4.23835 5.86449 4.21807C5.88986 4.19779 5.91091 4.17264 5.9264 4.1441C5.9419 4.11556 5.95152 4.08421 5.95471 4.05189C5.95789 4.01957 5.95458 3.98694 5.94496 3.95592C5.92829 3.90426 5.89454 3.86009 5.84913 3.82926L4.73329 3.06467C4.70022 3.04231 4.67317 3.01213 4.65457 2.9768C4.63596 2.94147 4.62636 2.9021 4.62663 2.86217L4.64413 1.53926C4.64418 1.50662 4.63778 1.47428 4.62529 1.44413C4.6128 1.41397 4.59446 1.38658 4.57134 1.36354C4.54822 1.34049 4.52077 1.32225 4.49057 1.30986C4.46037 1.29747 4.42802 1.29118 4.39538 1.29134C4.34014 1.29053 4.2861 1.30747 4.24121 1.33967L3.14537 2.13134C3.11219 2.15506 3.07389 2.17063 3.03357 2.17679C2.99324 2.18294 2.95204 2.1795 2.91329 2.16676L1.61871 1.74176C1.55591 1.72054 1.4873 1.7247 1.42752 1.75334C1.36774 1.78199 1.32152 1.83285 1.29871 1.89509C1.28096 1.9458 1.28096 2.00104 1.29871 2.05176L1.73787 3.30551C1.75099 3.34305 1.75447 3.38329 1.74799 3.42253C1.74151 3.46177 1.72528 3.49876 1.70079 3.53009L0.883291 4.59092C0.863659 4.61651 0.849382 4.64578 0.841315 4.677C0.833248 4.70823 0.831556 4.74075 0.83634 4.77264C0.841124 4.80453 0.852285 4.83513 0.869158 4.86262C0.88603 4.8901 0.908267 4.9139 0.934542 4.93259C0.979428 4.9648 1.03347 4.98174 1.08871 4.98092L2.45538 4.96426C2.49601 4.96356 2.53622 4.97258 2.57268 4.99055C2.60913 5.00852 2.64077 5.03493 2.66496 5.06759L3.45413 6.14843C3.49397 6.20166 3.55284 6.23745 3.61845 6.24832C3.68405 6.25919 3.75132 6.2443 3.80621 6.20676C3.85135 6.17609 3.88493 6.13121 3.90163 6.07926L4.15454 5.29176L7.35371 8.86676C7.43615 8.95736 7.53588 9.03055 7.64703 9.08203C7.75818 9.1335 7.87851 9.16222 8.00093 9.16649C8.12335 9.17076 8.24538 9.1505 8.35985 9.1069C8.47432 9.06329 8.57891 8.99723 8.66746 8.91259C8.75448 8.82956 8.82289 8.729 8.86817 8.61757C8.91345 8.50613 8.93456 8.38636 8.93011 8.26616C8.92566 8.14596 8.89575 8.02808 8.84235 7.9203C8.78896 7.81252 8.7133 7.71729 8.62038 7.64092L4.90621 4.52467ZM8.22579 4.47884C8.74496 4.47884 9.16663 4.07051 9.16663 3.56759C9.16663 3.06426 8.74496 2.65592 8.22579 2.65592C7.70496 2.65592 7.28413 3.06426 7.28413 3.56759C7.28413 4.07051 7.70579 4.47884 8.22579 4.47884ZM6.03829 1.87467C6.33538 1.87467 6.57663 1.64134 6.57663 1.35384C6.57663 1.06634 6.33538 0.833008 6.03871 0.833008C5.74163 0.833008 5.50038 1.06634 5.50038 1.35384C5.50038 1.64134 5.74204 1.87467 6.03871 1.87467H6.03829ZM2.14663 8.38509C2.66663 8.38509 3.08829 7.97676 3.08829 7.47384C3.08829 6.97051 2.66663 6.56217 2.14663 6.56217C1.62704 6.56217 1.20496 6.97051 1.20496 7.47384C1.20496 7.97676 1.62704 8.38551 2.14663 8.38551V8.38509Z" fill="#9CA3AF"/>
</g>
<defs>
<clipPath id="clip0_939_971">
<rect width="10" height="10" fill="white" transform="matrix(-1 0 0 1 10 0)"/>
</clipPath>
</defs>
</svg>
